<svg width="171" height="29" viewBox="0 0 171 29" fill="none" xmlns="http://www.w3.org/2000/svg">
<path d="M82 14.3935C87.4014 13.9434 92.4253 14.3935 92.4253 14.3935C107.828 12.7249 123.15 11.6814 138.642 11.6814C146.447 11.6814 154.242 11.6703 162.025 11.0216C162.885 10.95 166.203 10.2883 163.858 8.9692C157.2 5.22381 147.114 5.09887 139.742 4.13127C116.453 1.07458 115.869 2.20392 92.4253 2.20392C115.735 1.96457 88.4151 2.20597 92.4253 2.20597C103.932 2.20597 91.1833 2.33165 102.688 2.59193C124.056 3.07539 147.455 4.83503 167.193 13.8071C175.299 17.4917 157.308 19.321 156.345 19.4514C136.879 22.085 140.167 22.4934 120.495 22.4934" stroke="black" stroke-width="3" stroke-linecap="round"/>
<path d="M88 14.1414C88 14.1414 93.332 13.2029 88.0038 14.1414C88.0038 14.1414 84.5038 13.5303 78.8629 14.1414C63.4601 15.8101 48.1382 16.8536 32.646 16.8536C24.8411 16.8536 17.0464 16.8647 9.26273 17.5133C8.40307 17.585 5.08517 18.2467 7.43018 19.5658C14.0886 23.3112 24.1743 23.4361 31.5465 24.4037C54.8356 27.4604 52.0605 26.3825 75.5038 26.3825C77.2819 26.3825 92.014 26.3825 88.0038 26.3825C76.4972 26.3825 72.5081 26.6002 61.0038 26.3399C39.635 25.8565 23.8335 23.6999 4.09494 14.7278C-4.01121 11.0432 13.9802 9.21394 14.9436 9.0836C34.4097 6.44995 37.3323 6.04157 57.0038 6.04157" stroke="black" stroke-width="3" stroke-linecap="round"/>
</svg>
