<svg width="32" height="34" viewBox="0 0 32 34" fill="none" xmlns="http://www.w3.org/2000/svg">
<path d="M0.358495 22.1934L9.07625 25.7665L12.17 33.6342C12.251 33.8415 12.4426 33.9838 12.6633 34H12.7047H12.7045C12.9105 34 13.1007 33.8889 13.2031 33.7091L16.2414 28.3793L26.8719 33.1856L26.8722 33.1854C27.0378 33.2603 27.2285 33.2519 27.3869 33.1633C27.5455 33.0746 27.653 32.9155 27.6776 32.7344L31.9992 0.649235C32.0008 0.618235 32 0.587504 31.9968 0.556777C31.9979 0.52955 31.9971 0.502324 31.9941 0.475367C31.9856 0.435201 31.9727 0.396386 31.9559 0.359452C31.95 0.339234 31.9428 0.319556 31.9347 0.300147C31.905 0.243807 31.866 0.192858 31.8197 0.149458C31.8119 0.14245 31.8023 0.139754 31.7948 0.133284C31.7566 0.099318 31.7143 0.0707443 31.6688 0.0478298H31.6616C31.6375 0.0392036 31.6127 0.0321949 31.5878 0.0270731C31.5313 0.00227254 31.469 -0.00581404 31.4083 0.00415986C31.3708 0.00389024 31.3336 0.00739468 31.297 0.0141338C31.2729 0.0216821 31.2494 0.0308473 31.2264 0.0413601C31.1911 0.0532214 31.1568 0.068856 31.1247 0.087995C31.1186 0.091769 31.1113 0.0925777 31.1055 0.0966212L0.252948 21.1762C0.0769288 21.2961 -0.0188432 21.504 0.00309844 21.7167C0.0253017 21.9296 0.161997 22.1127 0.358883 22.1932L0.358495 22.1934ZM26.6412 31.8105L16.8175 27.3691L30.4639 3.42982L26.6412 31.8105ZM27.929 3.66439L11.4385 22.341C11.2275 22.5804 11.2489 22.947 11.4864 23.1597C11.724 23.3727 12.0875 23.3511 12.2988 23.1117L28.1538 5.15483L12.8001 32.0905L10.0555 25.1102C9.99771 24.9633 9.88295 24.8463 9.73769 24.7867L1.78899 21.5285L27.929 3.66439Z" fill="#1B1B1B"/>
</svg>
