<svg width="151" height="27" viewBox="0 0 151 27" fill="none" xmlns="http://www.w3.org/2000/svg">
<path d="M2 25.3965C7.40143 24.9464 12.7249 23.293 18.0531 22.3545C35.8936 19.2122 53.9187 16.2059 71.93 14.2546C87.3328 12.586 102.655 11.5425 118.147 11.5425C125.952 11.5425 133.746 11.5314 141.53 10.8828C142.39 10.8111 145.708 10.1494 143.363 8.83031C136.704 5.08492 126.619 4.95999 119.246 3.99238C95.9573 0.935695 72.0633 2.30644 48.62 2.30644C46.8419 2.30644 43.6569 2.30644 47.6671 2.30644C59.1736 2.30644 70.688 2.19277 82.1923 2.45305C103.561 2.9365 126.959 4.69615 146.698 13.6682C154.804 17.3528 136.813 19.1821 135.849 19.3125C116.383 21.9461 96.8792 24.7368 77.2077 24.7368" stroke="black" stroke-width="3" stroke-linecap="round"/>
</svg>
