<svg width="151" height="27" viewBox="0 0 151 27" fill="none" xmlns="http://www.w3.org/2000/svg">
<path d="M148.789 1.99995C143.388 2.45007 138.064 4.10349 132.736 5.04198C114.895 8.18433 96.8704 11.1906 78.8591 13.1418C63.4563 14.8105 48.1344 15.854 32.6422 15.854C24.8373 15.854 17.0426 15.8651 9.25893 16.5137C8.39927 16.5854 5.08137 17.2471 7.42638 18.5662C14.0848 22.3116 24.1705 22.4365 31.5427 23.4041C54.8318 26.4608 78.7258 25.09 102.169 25.09C103.947 25.09 107.132 25.09 103.122 25.09C91.6154 25.09 80.1011 25.2037 68.5968 24.9434C47.228 24.46 23.8297 22.7003 4.09114 13.7283C-4.01501 10.0436 13.9764 8.21434 14.9398 8.08401C34.4059 5.45036 53.9099 2.65967 73.5813 2.65967" stroke="black" stroke-width="3" stroke-linecap="round"/>
</svg>
