<svg width="34" height="36" viewBox="0 0 34 36" fill="none" xmlns="http://www.w3.org/2000/svg">
<path d="M1 35.0002C3 34.5 1 34.9961 1 34.9961C1 34.9961 6.53992 31.9822 7.83348 28.6445C9.09312 25.3942 8.80526 19.5961 7.30783 16.4498C1 3.19614 6.58338 32.2286 9.08303 33.1626C14 35 15.1223 22.6922 14.5 20.5002C12.5466 13.6192 18.6115 33.9061 15.7183 33.5085C14.1047 33.2867 11.9283 29.0948 12.5644 28.6445C13.6276 27.8917 19.2424 27.9535 19.2424 27.9535C20.4058 27.9535 19.4376 34.8501 19.2424 33.5085C15.7591 9.56864 22.68 33.9977 23.5 33.5085C24.7166 32.7825 31.0275 26.4566 33 26.4566" stroke="#1B1B1B" stroke-linecap="round"/>
<path d="M32.6385 2.63022C32.6398 2.0516 32.4925 1.41028 31.8646 1.11691C31.6985 1.03949 31.522 1 31.3421 1C30.4265 1 29.1966 1.81776 26.4294 7.75174C24.5095 11.8667 21.0032 20.5024 21.4459 22.1257L21.0528 22.9683C20.9215 23.2491 21.0437 23.5839 21.3246 23.7143C21.401 23.7491 21.4829 23.7669 21.5615 23.7669C21.7728 23.7669 21.9759 23.6469 22.0706 23.4422L22.4762 22.5705C24.6756 21.3146 30.2152 9.66901 30.2714 9.54464C30.9353 8.12128 31.45 6.91258 31.8309 5.88916C31.5973 6.95736 31.1074 8.44033 30.1423 10.5132C30.011 10.7953 30.1332 11.1288 30.4141 11.2601C30.4905 11.2949 30.5714 11.3128 30.651 11.3128C30.8623 11.3128 31.0645 11.1927 31.1601 10.988C32.5553 7.99305 33.2238 5.69232 33.1451 4.14764C33.1047 3.33582 32.8573 2.88098 32.6385 2.63022ZM22.5993 20.9834C22.7924 20.0723 23.2644 18.5592 23.9261 16.7302L25.0047 17.2324C24.0283 18.914 23.1723 20.2487 22.5993 20.9834ZM31.426 3.37087C31.1844 4.58206 30.4544 6.49939 29.2545 9.06998C28.065 11.6212 26.7504 14.1444 25.5643 16.2542L24.3161 15.6722C25.1687 13.4063 26.2585 10.7776 27.4472 8.22615C30.0569 2.63047 31.0726 2.13521 31.3791 2.13521H31.3891C31.4791 2.17658 31.6025 2.48917 31.426 3.37087Z" fill="#1B1B1B"/>
</svg>
