<svg width="45" height="32" viewBox="0 0 45 32" fill="none" xmlns="http://www.w3.org/2000/svg">
<path d="M43.9122 16.6954L43.4125 16.0781C43.3264 15.9716 42.7621 15.2855 41.7922 14.3101L45 11.9768L43.8468 10.3885L40.345 12.9355C39.2507 11.9529 37.8838 10.8504 36.2916 9.79419L39.2209 5.75827L37.6345 4.60377L34.62 8.75784C33.2623 7.97346 31.7737 7.25345 30.1698 6.67279L31.8062 1.63102L29.9406 1.02433L28.2999 6.07986C26.7757 5.66251 25.1653 5.38381 23.4797 5.30541V0H21.5188V5.30541C19.8329 5.38381 18.2229 5.66285 16.6987 6.07986L15.0589 1.02538L13.1941 1.63207L14.8295 6.67287C13.226 7.25354 11.7363 7.97357 10.3783 8.75828L7.36409 4.60631L5.77802 5.76081L8.70669 9.79498C7.11344 10.8519 5.74659 11.9547 4.65227 12.9373L1.15245 10.3918L0 11.98L3.20566 14.3116C2.23653 15.2864 1.67256 15.9721 1.58677 16.0786L1.08783 16.6959L1.58677 17.3132C1.6726 17.4197 2.23686 18.1055 3.20671 19.0813L1.12479 20.5956L2.27724 22.1838L4.65297 20.4555C5.74729 21.4381 7.11344 22.5405 8.70642 23.5968L6.59473 26.5063L8.18115 27.6608L10.378 24.6338C11.7357 25.4182 13.2243 26.1379 14.8281 26.7182L13.6217 30.4364L15.4872 31.0431L16.6985 27.3109C18.2226 27.7286 19.8327 28.0072 21.5187 28.086V32H23.4795V28.086C25.1651 28.0076 26.7754 27.7282 28.2997 27.3109L29.511 31.0431L31.3765 30.4364L30.1693 26.7178C31.7728 26.1375 33.2625 25.4175 34.6198 24.6335L36.817 27.6615L38.4034 26.507L36.291 23.5968C37.8839 22.5398 39.2502 21.4381 40.3445 20.4555L42.7219 22.1838L43.875 20.5956L41.7921 19.0809C42.7619 18.1055 43.3261 17.4194 43.4124 17.3129L43.9122 16.6954ZM22.5011 26.1491C17.2935 26.1488 13.0575 21.9077 13.0575 16.6954C13.0575 12.4592 15.8559 8.8646 19.7001 7.6668C17.6537 8.69561 16.2461 10.8101 16.2461 13.2598C16.2461 16.7178 19.0458 19.5208 22.5002 19.5208C25.9521 19.5208 28.7536 16.7178 28.7536 13.2598C28.7536 12.1769 28.4787 11.159 27.9958 10.2706C27.7752 11.1854 26.9579 11.8681 25.9751 11.8681C24.823 11.8681 23.8904 10.9334 23.8904 9.78165C23.8904 8.79763 24.572 7.97874 25.4861 7.75787C25.4194 7.72157 25.3473 7.69487 25.2792 7.66063C29.1333 8.85071 31.9426 12.4501 31.9426 16.6945C31.9426 21.9065 27.7083 26.1473 22.5034 26.1482C22.5027 26.1485 22.502 26.1485 22.501 26.1485L22.5011 26.1491ZM13.9336 24.2188C8.7544 21.9071 4.99956 18.1636 3.65486 16.6955C4.99851 15.2254 8.75203 11.477 13.9406 9.16637C12.1732 11.1778 11.0977 13.8124 11.0977 16.6955C11.0974 19.5755 12.1702 22.2078 13.934 24.2188H13.9336ZM33.9037 16.6955C33.9037 13.8164 32.8316 11.185 31.069 9.17452C36.2472 11.4862 40.0013 15.2287 41.346 16.6965C40.0024 18.1669 36.2488 21.9139 31.062 24.2243C32.829 22.2138 33.9035 19.5786 33.9035 16.6955H33.9037Z" fill="#DAE856"/>
</svg>
