  <svg id="logo" viewBox="0 0 74 74" xmlns="http://www.w3.org/2000/svg">
      <g>
        <path d="M15.462 17.034L14.6386 17.8325L9.40625 12.3227L10.3093 11.471L14.1074 15.4902L12.9919 8.91571L13.8152 8.11719L19.0476 13.627L18.1445 14.4787L14.3464 10.4595L15.462 17.034Z" fill="#ffffff"/>
        <path d="M20.0239 12.9104L16.332 6.28265L17.421 5.67045L18.988 8.46527L22.0424 6.73514L20.4754 3.94032L21.5644 3.32812L25.2828 9.95585L24.1938 10.5681L22.5736 7.69337L19.5192 9.4235L21.1128 12.2982L20.0239 12.9104Z" fill="#ffffff"/>
        <path d="M26.7446 8.35768C25.9479 7.85196 25.3901 7.02682 25.0979 5.9089C24.8058 4.79097 24.8855 3.80614 25.337 2.95439C25.7885 2.10264 26.5587 1.51705 27.621 1.25088C28.4444 1.03794 29.2146 1.06456 29.9052 1.38397C30.5957 1.70337 31.1003 2.23573 31.419 2.95439L30.1707 3.30041C29.6661 2.42204 28.8162 2.0494 27.8601 2.31557C27.1696 2.50189 26.6915 2.90116 26.4259 3.48673C26.1603 4.09893 26.1338 4.79098 26.3463 5.58949C26.5587 6.38801 26.9305 6.97359 27.4617 7.34623C27.9929 7.74549 28.6038 7.82534 29.2678 7.63902C30.277 7.37284 30.8347 6.62757 30.8081 5.61611L32.0565 5.27008C32.1361 6.0686 31.9768 6.78727 31.5253 7.39946C31.0738 8.01166 30.4363 8.43754 29.5865 8.67709C28.471 8.96988 27.5414 8.86341 26.7446 8.35768Z" fill="#ffffff"/>
        <path d="M32.7719 1.33087L32.7188 0.212935L38.6414 0L38.668 1.11793L36.3574 1.19778L36.5698 7.66578L35.3481 7.71902L35.1091 1.25102L32.7719 1.33087Z" fill="#ffffff"/>
        <path d="M40.7709 7.85134L39.6289 7.63841L41.0631 0.185547L42.2849 0.425101L41.2225 5.85504L45.9237 1.11715L47.0392 1.35671L45.6049 8.78295L44.3831 8.57001L45.4456 3.11346L40.7709 7.85134Z" fill="#ffffff"/>
        <path d="M48.8952 3.11303L49.3467 2.10156L54.7384 4.49712L54.2869 5.50859L52.1621 4.57698L49.5326 10.486L48.3906 9.9803L51.0466 4.04463L48.8952 3.11303Z" fill="#ffffff"/>
        <path d="M52.7734 12.1638L53.4374 11.2855L53.9952 11.7113C54.2608 11.8977 54.4733 12.0041 54.6326 12.0308C54.792 12.0574 55.0044 12.0041 55.27 11.8444L55.695 11.6049L56.6246 5.53613L57.7401 6.36127L56.9964 10.9394L60.9007 8.75683L61.9366 9.55534L55.9606 12.7494C55.456 13.0422 55.0044 13.1753 54.6591 13.1487C54.3139 13.1487 53.9421 13.0156 53.6233 12.7494L52.7734 12.1638Z" fill="#ffffff"/>
        <path d="M62.5739 11.7633L63.4238 11.0713L67.2218 15.5962L66.3719 16.3149L64.858 14.5049L59.9179 18.6839L59.1211 17.7256L64.0612 13.5467L62.5739 11.7633Z" fill="#ffffff"/>
        <path d="M65.8422 31.4783L65.6562 30.254L73.1196 29.0029L73.8633 33.5013L72.7743 33.6876L72.2166 30.4136L65.8422 31.4783Z" fill="#ffffff"/>
        <path d="M66.4297 35.4951L73.9993 35.7081L73.8665 40.6589L72.7775 40.6056L72.8572 36.9058L70.759 36.8526L70.6793 39.9136L69.6169 39.887L69.6966 36.826L67.4921 36.7727L67.4124 40.6056L66.2969 40.579L66.4297 35.4951Z" fill="#ffffff"/>
        <path d="M66.2186 41.374L73.5758 43.2372L73.2571 44.435L70.1761 43.6631L69.3262 47.0701L72.4072 47.842L72.115 49.0664L64.7578 47.2032L65.0765 46.0054L68.2637 46.8039L69.1137 43.3969L65.9265 42.5984L66.2186 41.374Z" fill="#ffffff"/>
        <path d="M63.7193 49.4653L64.3036 48.374L70.9966 51.9408L68.1548 57.211L61.4883 53.6176L62.0726 52.5263L67.783 55.5873L69.4296 52.5263L63.7193 49.4653Z" fill="#ffffff"/>
        <path d="M61.2011 54.2002L62.0244 54.9455L61.8916 55.0786C61.7057 55.2915 61.626 55.5044 61.626 55.6908C61.626 55.9037 61.7323 56.1699 61.9979 56.5159C62.2369 56.8353 62.6353 57.2612 63.1665 57.7669L65.9287 60.2956L62.2369 64.3414L56.6328 59.2309L57.4827 58.2993L62.2635 62.6645L64.3086 60.4287L62.29 58.5921C60.9089 57.3144 60.3246 56.3828 60.4043 55.6109C60.4309 55.2117 60.6433 54.839 60.9886 54.4664L61.2011 54.2002Z" fill="#ffffff"/>
        <path d="M55.1089 60.3984L56.1713 59.6797L57.9775 67.5851L56.7291 68.4102L50.1953 63.6457L51.3109 62.9004L52.931 64.0716L55.5073 62.3414L55.1089 60.3984ZM56.676 66.8398L55.8526 63.4061L53.8341 64.737L56.676 66.8398Z" fill="#ffffff"/>
        <path d="M49.6416 63.832L52.1648 70.992L50.9962 71.3913L49.9338 68.3836L46.6138 69.5547L47.6762 72.5625L46.5076 72.9883L43.9844 65.8283L45.153 65.4291L46.242 68.5166L49.5619 67.3455L48.473 64.2579L49.6416 63.832Z" fill="#ffffff"/>
        <path d="M42.097 66.1741L43.3719 66.041L41.2737 73.8665L39.7864 73.9996L36.2539 66.7331L37.5819 66.6L38.4584 68.3833L41.5393 68.0905L42.097 66.1741ZM40.4504 72.5889L41.3268 69.1818L38.9365 69.4214L40.4504 72.5889Z" fill="#ffffff"/>
        <path d="M27.1684 65.1095L23.7157 71.8702L22.2815 71.125L22.8392 64.7102L18.0053 68.9157L16.5977 68.1971L20.0504 61.4629L21.1394 61.9952L18.5896 66.9727L23.158 63.0333L24.0875 63.5124L23.5564 69.5279L26.106 64.5771L27.1684 65.1095Z" fill="#ffffff"/>
        <path d="M11.4722 58.6173C11.9769 58.0849 12.5346 57.7123 13.172 57.4993C13.8095 57.2864 14.4204 57.2598 15.0579 57.3929C15.6953 57.526 16.2796 57.8454 16.7843 58.3511C17.2889 58.8302 17.6342 59.4158 17.8201 60.028C18.006 60.6668 18.006 61.279 17.8201 61.9178C17.6342 62.5566 17.2889 63.1422 16.7843 63.6746C16.2796 64.2069 15.7218 64.5795 15.0844 64.7925C14.4469 65.0054 13.8361 65.032 13.1986 64.899C12.5612 64.7659 11.9769 64.4198 11.4722 63.9407C10.9676 63.4616 10.5957 62.9027 10.4363 62.2638C10.2504 61.625 10.2504 61.0128 10.4363 60.374C10.6488 59.7086 10.9676 59.1496 11.4722 58.6173ZM15.8812 62.7962C16.439 62.2106 16.7311 61.5718 16.7577 60.9064C16.7843 60.2143 16.5452 59.6287 16.0406 59.1496C15.5359 58.6705 14.9251 58.4576 14.261 58.5108C13.597 58.564 12.9595 58.9101 12.4283 59.4956C11.8706 60.0812 11.5784 60.72 11.5518 61.3855C11.5253 62.0509 11.7644 62.6631 12.269 63.1422C12.7737 63.6213 13.3845 63.8343 14.0485 63.781C14.7126 63.7012 15.3234 63.3818 15.8812 62.7962Z" fill="#ffffff"/>
        <path d="M12.3772 55.0533C12.1116 55.9583 11.5007 56.7302 10.4914 57.3424C9.50868 57.9546 8.526 58.1409 7.5964 57.9546C6.66681 57.7683 5.89655 57.1827 5.31223 56.2245C4.86071 55.4792 4.67482 54.7605 4.80762 53.9886C4.91386 53.2433 5.28572 52.6045 5.8966 52.0722L6.5606 53.1635C5.87004 53.8821 5.76377 54.8138 6.26841 55.6655C6.64025 56.2777 7.1449 56.6237 7.80889 56.7036C8.47289 56.7834 9.13685 56.6237 9.8274 56.1979C10.518 55.772 10.9695 55.2396 11.2086 54.6274C11.421 54.0152 11.3414 53.403 10.9961 52.7908C10.4649 51.9125 9.58836 51.5664 8.63221 51.8858L7.96821 50.7945C8.71189 50.4751 9.42902 50.4485 10.1727 50.7147C10.8898 50.9809 11.4741 51.4866 11.9522 52.2319C12.4834 53.2167 12.6428 54.1217 12.3772 55.0533Z" fill="#ffffff"/>
        <path d="M9.48123 47.5228L9.85304 48.7206L2.62873 50.9831L2.25685 49.7853L5.31125 48.8271L4.93944 47.6293L1.19445 46.3783L0.769531 45.0208L5.04565 46.4848L7.94074 42.5986L8.39224 44.036L5.97526 47.2833L6.34713 48.5077L9.48123 47.5228Z" fill="#ffffff"/>
        <path d="M7.91536 41.9357L0.372314 42.4947L0.15982 39.7265C0.1067 38.9014 0.239501 38.2359 0.558222 37.7568C0.876944 37.2777 1.35504 37.0116 1.96592 36.9583C2.84241 36.9051 3.42669 37.331 3.71885 38.1295C3.79853 37.1446 4.32976 36.4792 5.33904 36.426C6.02961 36.3727 6.5608 36.5857 6.98576 37.0382C7.41072 37.4907 7.64975 38.1827 7.70287 39.0877L7.91536 41.9357ZM1.32844 41.1638L3.50642 41.0041L3.40014 39.4337C3.34702 38.582 2.8955 38.1295 2.20494 38.1827C1.54093 38.2359 1.16911 38.7417 1.22223 39.5934L1.32844 41.1638ZM4.51565 40.9243L6.79985 40.7646L6.69364 39.1143C6.61396 38.1295 6.16241 37.6237 5.47184 37.677C4.72816 37.7302 4.35635 38.3158 4.43603 39.274L4.51565 40.9243Z" fill="#ffffff"/>
        <path d="M7.43674 35.3387L0 33.9013L0.239077 32.6769L2.94816 33.2093L3.26687 31.559C3.42622 30.7871 3.74496 30.2015 4.27615 29.8023C4.80735 29.403 5.4182 29.2966 6.10875 29.4296C6.7993 29.5627 7.33054 29.9088 7.67582 30.4677C8.02109 31.0267 8.12729 31.6921 7.96793 32.464L7.43674 35.3387ZM8.89753 27.7528L8.65851 28.9772L1.22178 27.5398L1.46079 26.3154L8.89753 27.7528ZM4.03714 33.3956L6.63995 33.9013L6.93213 32.3309C7.01181 31.905 6.95866 31.5324 6.77274 31.213C6.58683 30.9202 6.29472 30.7339 5.89632 30.654C5.49793 30.5742 5.15261 30.654 4.86045 30.867C4.5683 31.0799 4.40898 31.3993 4.30274 31.8518L4.03714 33.3956Z" fill="#ffffff"/>
        <path d="M49.3496 25.1455H48.0469V49.0659H49.3496V25.1455Z" fill="#ffffff"/>
        <path d="M37.666 25.1455H36.3633V49.0659H37.666V25.1455Z" fill="#ffffff"/>
        <path d="M25.9513 25.1455H24.6484V49.0659H25.9513V25.1455Z" fill="#ffffff"/>
      </g>
  </svg>

